<?xml version="1.0" encoding="utf-8"?>
<!-- Generator: Adobe Illustrator 23.0.4, SVG Export Plug-In . SVG Version: 6.00 Build 0)  -->
<svg version="1.1" id="Layer_1" xmlns="http://www.w3.org/2000/svg" xmlns:xlink="http://www.w3.org/1999/xlink" x="0px" y="0px"
	 viewBox="0 0 32 32" style="enable-background:new 0 0 32 32;" xml:space="preserve">
<style type="text/css">
	.st0{fill:#F6ECE3;}
</style>
<circle class="st0" cx="16" cy="17.36" r="14.47"/>
<path d="M11.11,18.31L7.95,29.39l-0.84-0.61l-0.74-0.62l6.15-19.28h2.14l4.7,13.76h-1.9l-1.47-4.33H11.11z M15.62,16.92l-1.35-3.96
	c-0.31-0.9-0.51-1.71-0.71-2.51h-0.04c-0.2,0.82-0.43,1.65-0.69,2.49l-1.35,3.98H15.62z"/>
<path d="M18.83,25.5c0.82-0.06,1.53-0.29,1.96-0.76c0.49-0.57,0.67-1.35,0.67-3.72L21.46,5.37h1.8l0.01,16.35
	c0,1.92-0.31,3.16-1.18,4.06c-0.8,0.79-2.1,1.12-3.06,1.12L18.83,25.5z"/>
<path d="M23.47,1.29c0.02,0.59-0.41,1.1-1.12,1.1c-0.67,0-1.1-0.51-1.1-1.1c0-0.63,0.47-1.12,1.14-1.12
	C23.04,0.17,23.47,0.66,23.47,1.29z"/>
</svg>
